<?xml version="1.0" standalone="no"?>
<!DOCTYPE svg PUBLIC "-//W3C//DTD SVG 20010904//EN"
 "http://www.w3.org/TR/2001/REC-SVG-20010904/DTD/svg10.dtd">
<svg version="1.0" xmlns="http://www.w3.org/2000/svg"
 width="300.000000pt" height="300.000000pt" viewBox="0 0 300.000000 300.000000"
 preserveAspectRatio="xMidYMid meet">
<metadata>
Created by potrace 1.14, written by Peter Selinger 2001-2017
</metadata>
<g transform="translate(0.000000,300.000000) scale(0.100000,-0.100000)"
fill="#000000" stroke="none">
<path d="M0 1500 l0 -1500 1500 0 1500 0 0 1500 0 1500 -1500 0 -1500 0 0
-1500z m1195 726 c39 -25 105 -66 148 -92 91 -56 111 -81 69 -86 l-27 -4 25
-11 c24 -11 24 -12 3 -12 -28 -1 -41 -21 -13 -21 12 0 18 -4 15 -10 -3 -5 -15
-10 -26 -10 -10 0 -19 -4 -19 -10 0 -16 -76 -12 -90 5 -6 8 -32 26 -56 40 -24
14 -44 30 -44 35 0 6 -7 10 -15 10 -7 0 -18 6 -22 13 -12 18 -94 82 -129 100
-29 15 -72 13 -84 -3 -3 -3 -22 -16 -42 -29 -29 -17 -49 -21 -95 -19 l-58 3
39 37 c37 35 37 36 15 40 -47 6 -18 23 52 30 86 9 102 18 33 18 -35 0 -45 3
-34 10 8 5 76 10 150 10 l136 0 69 -44z m895 7 c82 -37 140 -87 140 -119 0
-35 -18 -31 -131 27 l-99 52 -43 -17 c-23 -9 -61 -17 -82 -17 l-40 -2 38 -6
39 -6 -102 -82 c-71 -58 -110 -83 -129 -83 -15 0 -32 -5 -38 -11 -14 -14 -78
-7 -79 9 -1 6 -2 16 -3 22 0 5 -8 7 -16 4 -8 -4 -15 -2 -15 4 0 6 6 13 13 15
7 3 5 6 -5 6 -22 1 -24 21 -3 21 8 0 15 7 15 15 0 8 19 27 42 42 l42 28 -35 6
c-41 7 -24 16 42 22 31 3 65 16 100 39 99 65 107 67 199 64 69 -2 97 -8 150
-33z m-1367 -120 c-7 -2 -19 -2 -25 0 -7 3 -2 5 12 5 14 0 19 -2 13 -5z m62
-23 c-3 -5 -15 -10 -25 -10 -10 0 -22 5 -25 10 -4 6 7 10 25 10 18 0 29 -4 25
-10z m1417 -171 c10 -13 20 -41 23 -62 5 -30 3 -38 -12 -43 -10 -3 -26 -10
-35 -15 -11 -5 -19 -5 -23 1 -3 6 1 10 9 10 22 0 20 25 -8 92 -13 32 -21 60
-18 63 8 7 43 -18 64 -46z m-1432 16 c0 -8 9 -15 20 -15 23 0 23 0 8 -37 -6
-15 -10 -36 -9 -45 2 -12 -5 -18 -18 -18 -27 0 -28 -30 -1 -37 11 -3 20 -12
20 -19 0 -19 -6 -18 -46 12 -36 28 -43 44 -20 44 8 0 16 14 18 33 3 17 8 40
13 50 6 14 2 17 -19 17 -18 0 -24 4 -20 15 4 8 17 15 30 15 15 0 24 -6 24 -15z
m57 9 c-3 -3 -12 -4 -19 -1 -8 3 -5 6 6 6 11 1 17 -2 13 -5z m374 -50 c36 -18
86 -69 95 -96 4 -14 -1 -24 -15 -34 -12 -9 -21 -20 -21 -26 0 -6 -8 -20 -17
-31 -17 -18 -17 -20 11 -43 44 -39 25 -38 -41 0 -89 52 -138 63 -215 47 -35
-8 -85 -16 -113 -18 l-50 -4 25 20 c14 11 19 21 13 21 -21 0 -14 20 6 20 23 0
40 22 23 28 -20 6 -14 42 7 42 25 0 35 27 13 33 -12 3 -10 5 6 6 12 0 34 9 48
18 65 42 163 50 225 17z m757 10 c62 -26 119 -93 80 -94 -7 0 -5 -5 5 -11 9
-5 17 -21 17 -34 0 -16 10 -30 30 -42 29 -17 39 -33 21 -33 -5 0 -30 10 -57
21 -77 34 -222 16 -281 -35 -35 -31 -43 -36 -58 -36 -8 0 -15 7 -15 15 0 8 5
15 11 15 5 0 8 4 5 9 -3 5 2 12 11 15 14 6 11 12 -15 39 -22 23 -31 41 -30 60
1 15 6 27 11 27 5 0 7 9 4 21 -4 13 0 22 11 26 9 3 24 7 32 9 13 5 13 6 0 14
-11 7 -8 10 15 11 17 0 39 4 50 9 33 14 113 11 153 -6z m-514 -168 c-5 -80
-12 -93 -88 -166 -50 -48 -56 -58 -56 -95 0 -23 -3 -45 -7 -48 -14 -14 -33 17
-33 55 0 36 7 47 70 110 48 49 70 79 71 97 5 84 7 99 19 120 19 37 29 8 24
-73z m143 48 c9 -105 21 -130 82 -184 60 -51 77 -87 65 -136 -8 -31 -36 -32
-34 -1 5 50 -3 64 -67 123 -64 60 -67 65 -73 119 -8 69 -2 117 14 112 6 -2 12
-17 13 -33z m623 6 c0 -5 -7 -10 -16 -10 -8 0 -12 5 -9 10 3 6 10 10 16 10 5
0 9 -4 9 -10z m-1416 -215 c-4 -9 0 -15 7 -16 8 0 5 -4 -6 -9 -11 -5 -14 -9
-7 -9 17 -1 15 -21 -3 -21 -18 0 -20 -20 -2 -21 6 0 3 -4 -8 -9 -13 -6 -15 -9
-5 -9 13 -1 13 -2 0 -11 -10 -6 -11 -10 -2 -10 18 0 15 -21 -5 -36 -15 -11
-15 -13 -3 -14 8 0 23 -19 34 -41 15 -32 30 -46 70 -65 28 -13 63 -24 77 -24
46 0 89 12 89 25 0 15 22 25 54 25 12 0 44 11 71 24 77 40 136 50 178 32 20
-8 46 -27 59 -41 26 -30 68 -55 94 -55 10 0 50 25 89 55 95 72 112 72 291 0
76 -30 151 -55 167 -55 17 0 27 3 24 7 -9 9 40 33 68 33 25 0 58 30 34 31 -8
0 -4 4 9 9 24 10 32 60 10 60 -9 0 -8 4 2 10 12 8 12 10 1 10 -10 0 -12 9 -7
34 5 26 3 35 -9 40 -9 3 -13 11 -9 17 3 6 2 14 -4 18 -6 4 -7 12 -3 20 7 11
15 8 41 -10 48 -35 84 -72 87 -89 1 -8 9 -20 17 -26 9 -6 16 -15 16 -19 0 -4
7 -13 15 -19 8 -6 16 -23 19 -38 2 -15 7 -32 11 -38 3 -5 -2 -11 -12 -11 -17
-1 -17 -2 0 -6 25 -6 21 -39 -5 -47 -22 -7 -22 -7 -3 -16 17 -7 17 -9 3 -9
-23 -1 -23 -18 0 -24 12 -3 9 -5 -8 -6 l-25 -2 23 -10 c29 -11 20 -29 -16 -30
-25 -2 -25 -2 -4 -6 31 -6 25 -37 -8 -41 -47 -6 -57 -15 -25 -22 30 -8 30 -8
-7 -9 -44 -1 -51 -18 -10 -24 22 -3 21 -4 -10 -6 -63 -2 -94 -25 -45 -33 18
-3 14 -6 -18 -16 -65 -20 -293 -27 -403 -12 -88 11 -101 11 -131 -4 -28 -15
-51 -17 -159 -11 -70 3 -147 11 -172 17 -29 6 -54 6 -70 0 -22 -8 -20 -10 28
-22 29 -8 52 -17 52 -21 0 -12 97 -29 169 -29 39 0 101 9 147 22 56 16 101 21
154 20 103 -4 126 -29 38 -41 -48 -7 -65 -31 -22 -31 26 0 27 0 9 -20 -12 -13
-31 -20 -55 -20 -20 0 -52 -8 -71 -17 l-34 -18 40 -6 40 -5 -40 -20 c-35 -16
-63 -19 -210 -19 -169 0 -170 0 -230 30 -33 16 -88 57 -122 91 -35 34 -71 65
-80 69 -17 7 -17 8 2 15 12 4 -20 10 -85 13 -233 13 -255 19 -322 82 -15 14
-33 25 -40 25 -11 0 -11 2 0 8 17 11 5 42 -17 42 -13 0 -13 2 -2 9 9 6 11 16
5 32 -4 13 -6 39 -5 57 2 25 -1 32 -16 32 -13 0 -19 8 -21 25 -1 21 3 25 23
25 30 0 36 36 8 43 -11 3 -7 5 10 6 31 1 38 21 6 21 -11 0 -17 5 -14 10 3 6
18 10 32 10 16 0 27 7 30 20 3 11 10 20 17 21 6 0 2 4 -9 9 -18 8 -18 9 5 9
19 1 22 3 11 10 -11 7 -6 10 19 13 37 3 52 24 23 31 -11 3 -7 5 12 7 17 1 24
4 17 7 -10 4 -10 8 -1 19 16 19 50 19 43 -1z m969 -732 c-7 -2 -21 -2 -30 0
-10 3 -4 5 12 5 17 0 24 -2 18 -5z"/>
<path d="M928 2203 c7 -3 16 -2 19 1 4 3 -2 6 -13 5 -11 0 -14 -3 -6 -6z"/>
<path d="M2280 1150 c0 -5 5 -10 10 -10 6 0 10 5 10 10 0 6 -4 10 -10 10 -5 0
-10 -4 -10 -10z"/>
</g>
</svg>
